# xmcd
#
# Track frame offsets: 
#        150
#        20960
#        43152
#
# Disc length: 1238 seconds
#
# Revision: 0
# Processed by: cddbd v1.5PL3 Copyright (c) Steve Scherf et al.
# Submitted via: ExactAudioCopy v0.95a5
#
DISCID=2504d403
DTITLE=Catherine Wheel - IRD Sampler
DYEAR=2000
DGENRE=Rock
TTITLE0=Crank (Live)
TTITLE1=Texture (Live)
TTITLE2=Black Metallic (Live)
EXTD=
EXTT0=
EXTT1=
EXTT2=
PLAYORDER=
